<?xml version="1.0" encoding="UTF-8"?>
<!-- Generator: Adobe Illustrator 15.1.0, SVG Export Plug-In  -->
<!DOCTYPE svg PUBLIC "-//W3C//DTD SVG 1.1//EN" "http://www.w3.org/Graphics/SVG/1.1/DTD/svg11.dtd" [
	<!ENTITY ns_flows "http://ns.adobe.com/Flows/1.0/">
]>
<svg version="1.1" xmlns="http://www.w3.org/2000/svg" xmlns:xlink="http://www.w3.org/1999/xlink" x="0px" y="0px" width="270px" height="220px" viewBox="0 0 270 220" overflow="visible" enable-background="new 0 0 270 220" xml:space="preserve">
<defs>
	<symbol id="Penicl_Icon_Small" viewBox="0 -14 14 14">
		<g>
			<path fill="#1B97D1" d="M3.139-11.769c-0.13,0.128-0.445,0.155-0.587,0.298c-0.177,0.177-0.171,0.46-0.341,0.632     c-0.133,0.131-0.36,0.159-0.473,0.271c-0.129,0.13-0.141,0.341-0.223,0.423c-0.177-0.664-0.773-2.317-0.387-2.707     c0.39-0.39,1.747,0.061,2.615,0.48c-0.064,0.064-0.257,0.104-0.388,0.235C3.268-12.048,3.247-11.875,3.139-11.769z"/>
			<path fill="#1B97D1" d="M2.286-8.6c0.195-0.195,0.515-0.195,0.711,0l7.096,7.095L9.727-1.137     c-0.198,0.185-0.509,0.184-0.701-0.01l-6.74-6.741C2.089-8.084,2.089-8.404,2.286-8.6z"/>
			<path fill="#1B97D1" d="M10.669-2.081L3.72-9.03c-0.317-0.318-0.317-0.83,0-1.149l0.034-0.033c0.317-0.315,0.83-0.315,1.148,0     l6.949,6.95L10.669-2.081z"/>
			<path fill="#1B97D1" d="M12.758-4.169l-0.366,0.365l-7.096-7.095c-0.196-0.198-0.196-0.517,0-0.713     c0.197-0.198,0.516-0.198,0.712,0l6.74,6.74C12.942-4.678,12.945-4.368,12.758-4.169z"/>
		</g>
		<polygon fill="none" points="14,-14 0,-14 0,0 14,0   "/>
	</symbol>
</defs>
<path fill="#FFFFFF" d="M10.979,13.704c0,0.761,0,1.935-1.42,1.935c-0.864,0-1.214-0.474-1.419-1.256  c-0.762,0.905-1.688,1.379-2.819,1.379c-2.777,0-4.897-2.367-4.897-5.7c0-3.251,2.181-5.741,4.897-5.741  c1.091,0,2.161,0.432,2.819,1.358c0.083-0.72,0.699-1.235,1.419-1.235c1.42,0,1.42,1.173,1.42,1.934V13.704z M5.732,13.045  c1.543,0,2.284-1.563,2.284-2.983c0-1.42-0.721-3.025-2.284-3.025c-1.626,0-2.346,1.605-2.346,3.025  C3.386,11.481,4.127,13.045,5.732,13.045z"/>
<path fill="#FFFFFF" d="M11.814,6.091c0-0.988,0.617-1.646,1.481-1.646c0.823,0,1.296,0.453,1.481,1.235  c0.556-0.906,1.708-1.358,2.819-1.358c3.189,0,4.773,2.983,4.773,5.865c0,2.798-1.893,5.576-4.876,5.576  c-0.926,0-1.934-0.35-2.716-1.029v3.621c0,0.988-0.617,1.646-1.481,1.646s-1.481-0.659-1.481-1.646V6.091z M17.102,13.045  c1.543,0,2.305-1.605,2.305-2.983c0-1.399-0.761-3.025-2.305-3.025c-1.584,0-2.325,1.481-2.325,2.922  C14.777,11.399,15.477,13.045,17.102,13.045z"/>
<path fill="#FFFFFF" d="M26.217,1.625c0,0.926-0.74,1.708-1.667,1.708c-0.884,0-1.666-0.802-1.666-1.708  C22.884,0.782,23.666,0,24.55,0C25.436,0,26.217,0.761,26.217,1.625z M23.069,6.091c0-0.988,0.617-1.646,1.481-1.646  c0.865,0,1.482,0.659,1.482,1.646v7.901c0,0.988-0.617,1.646-1.482,1.646c-0.864,0-1.481-0.659-1.481-1.646V6.091z"/>
<path fill="#FFFFFF" d="M37.287,14.65c0,3.56-2.325,5.35-5.699,5.35c-1.214,0-4.671-0.597-4.671-2.223  c0-0.555,0.618-1.296,1.193-1.296c0.947,0,1.996,0.926,3.704,0.926c1.44,0,2.51-0.843,2.51-2.345v-0.7h-0.042  c-0.617,0.905-1.625,1.4-2.983,1.4c-3.107,0-4.568-2.737-4.568-5.679c0-2.984,1.893-5.762,4.876-5.762  c1.008,0,2.161,0.453,2.716,1.358c0.185-0.782,0.658-1.235,1.481-1.235c0.865,0,1.482,0.659,1.482,1.646V14.65z M31.999,7.037  c-1.543,0-2.305,1.605-2.305,2.983c0,1.584,0.762,3.024,2.305,3.024c1.584,0,2.325-1.481,2.325-2.921S33.625,7.037,31.999,7.037z"/>
<path fill="#FFFFFF" d="M40.847,11.029c0.206,1.461,1.42,2.14,2.798,2.14c1.523,0,2.573-1.193,3.354-1.193  c0.638,0,1.214,0.638,1.214,1.275c0,1.276-2.634,2.511-4.836,2.511c-3.333,0-5.555-2.429-5.555-5.7c0-3.004,2.181-5.741,5.309-5.741  c3.21,0,5.329,2.922,5.329,5.391c0,0.885-0.391,1.317-1.296,1.317H40.847z M45.497,9.054C45.333,7.757,44.509,6.79,43.13,6.79  c-1.316,0-2.202,1.008-2.345,2.264H45.497z"/>
<path fill="#FFFFFF" d="M51.964,11.067c0.206,1.461,1.419,2.14,2.798,2.14c1.523,0,2.572-1.193,3.354-1.193  c0.638,0,1.214,0.638,1.214,1.275c0,1.276-2.634,2.511-4.836,2.511c-3.333,0-5.555-2.429-5.555-5.7c0-3.004,2.181-5.741,5.309-5.741  c3.21,0,5.329,2.922,5.329,5.392c0,0.885-0.391,1.316-1.296,1.316H51.964z M56.614,9.092c-0.164-1.296-0.988-2.264-2.366-2.264  c-1.317,0-2.202,1.008-2.345,2.264H56.614z"/>
<path fill="#DDDDDD" d="M10.979,43.704c0,0.761,0,1.935-1.42,1.935c-0.864,0-1.214-0.474-1.419-1.256  c-0.762,0.905-1.688,1.379-2.819,1.379c-2.777,0-4.897-2.367-4.897-5.7c0-3.251,2.181-5.741,4.897-5.741  c1.091,0,2.161,0.432,2.819,1.358c0.083-0.72,0.699-1.235,1.419-1.235c1.42,0,1.42,1.173,1.42,1.934V43.704z M5.732,43.045  c1.543,0,2.284-1.563,2.284-2.983c0-1.42-0.721-3.025-2.284-3.025c-1.626,0-2.346,1.605-2.346,3.025  C3.386,41.481,4.127,43.045,5.732,43.045z"/>
<path fill="#DDDDDD" d="M11.814,36.091c0-0.988,0.617-1.646,1.481-1.646c0.823,0,1.296,0.453,1.481,1.235  c0.556-0.906,1.708-1.358,2.819-1.358c3.189,0,4.773,2.983,4.773,5.865c0,2.798-1.893,5.576-4.876,5.576  c-0.926,0-1.934-0.35-2.716-1.029v3.621c0,0.988-0.617,1.646-1.481,1.646s-1.481-0.659-1.481-1.646V36.091z M17.102,43.045  c1.543,0,2.305-1.605,2.305-2.983c0-1.399-0.761-3.025-2.305-3.025c-1.584,0-2.325,1.481-2.325,2.922  C14.777,41.399,15.477,43.045,17.102,43.045z"/>
<path fill="#DDDDDD" d="M26.217,31.625c0,0.926-0.74,1.708-1.667,1.708c-0.884,0-1.666-0.802-1.666-1.708  c0-0.844,0.782-1.625,1.666-1.625C25.436,30,26.217,30.761,26.217,31.625z M23.069,36.091c0-0.988,0.617-1.646,1.481-1.646  c0.865,0,1.482,0.659,1.482,1.646v7.901c0,0.988-0.617,1.646-1.482,1.646c-0.864,0-1.481-0.659-1.481-1.646V36.091z"/>
<path fill="#DDDDDD" d="M37.287,44.65c0,3.56-2.325,5.35-5.699,5.35c-1.214,0-4.671-0.597-4.671-2.223  c0-0.555,0.618-1.296,1.193-1.296c0.947,0,1.996,0.926,3.704,0.926c1.44,0,2.51-0.843,2.51-2.345v-0.7h-0.042  c-0.617,0.905-1.625,1.4-2.983,1.4c-3.107,0-4.568-2.737-4.568-5.679c0-2.984,1.893-5.762,4.876-5.762  c1.008,0,2.161,0.453,2.716,1.358c0.185-0.782,0.658-1.235,1.481-1.235c0.865,0,1.482,0.659,1.482,1.646V44.65z M31.999,37.037  c-1.543,0-2.305,1.605-2.305,2.983c0,1.584,0.762,3.024,2.305,3.024c1.584,0,2.325-1.481,2.325-2.921S33.625,37.037,31.999,37.037z"/>
<path fill="#DDDDDD" d="M40.847,41.029c0.206,1.461,1.42,2.14,2.798,2.14c1.523,0,2.573-1.193,3.354-1.193  c0.638,0,1.214,0.638,1.214,1.275c0,1.276-2.634,2.511-4.836,2.511c-3.333,0-5.555-2.429-5.555-5.7c0-3.004,2.181-5.741,5.309-5.741  c3.21,0,5.329,2.922,5.329,5.391c0,0.885-0.391,1.317-1.296,1.317H40.847z M45.497,39.054c-0.164-1.297-0.988-2.264-2.366-2.264  c-1.316,0-2.202,1.008-2.345,2.264H45.497z"/>
<path fill="#DDDDDD" d="M51.964,41.067c0.206,1.461,1.419,2.14,2.798,2.14c1.523,0,2.572-1.193,3.354-1.193  c0.638,0,1.214,0.638,1.214,1.275c0,1.276-2.634,2.511-4.836,2.511c-3.333,0-5.555-2.429-5.555-5.7c0-3.004,2.181-5.741,5.309-5.741  c3.21,0,5.329,2.922,5.329,5.392c0,0.885-0.391,1.316-1.296,1.316H51.964z M56.614,39.092c-0.164-1.296-0.988-2.264-2.366-2.264  c-1.317,0-2.202,1.008-2.345,2.264H56.614z"/>
<polygon id="Apigee_Arrow_Grey_1_" fill="#3F3F3F" points="100,10 110,0 120,10 "/>
<polygon id="Small_Header_Toggle_Open_1_" fill="#1B97D1" points="152,44 160,44 156,49 "/>
<polygon id="Small_Header_Toggle_Closed_1_" fill="#1B97D1" points="133,50 133,42 138,46 "/>
<circle fill="#59656A" cx="77.5" cy="27.5" r="7.5"/>
<polygon fill="#FFFFFF" points="81.711,25.253 79.747,23.289 77.5,25.536 75.253,23.289 73.289,25.253 75.536,27.5 73.289,29.747   75.253,31.711 77.5,29.464 79.747,31.711 81.711,29.747 79.464,27.5 "/>
<circle fill="#B32424" cx="97.5" cy="27.5" r="7.5"/>
<polygon fill="#FFFFFF" points="101.711,25.253 99.747,23.289 97.5,25.536 95.253,23.289 93.289,25.253 95.536,27.5 93.289,29.747   95.253,31.711 97.5,29.464 99.747,31.711 101.711,29.747 99.464,27.5 "/>
<circle fill="#24B337" cx="117.5" cy="27.5" r="7.5"/>
<polygon fill="#FFFFFF" points="122.827,25.253 120.863,23.289 116.384,27.768 114.137,25.521 112.173,27.484 116.369,31.711 "/>
<polygon fill="#1B97D1" points="141.5,26.5 137,22 137,24.875 130,24.875 130,28.125 137,28.125 137,31 "/>
<polygon fill="#1B97D1" points="150.5,26.5 155,22 155,24.875 162,24.875 162,28.125 155,28.125 155,31 "/>
<path fill="#59656A" d="M101.772,107.002c0,0-4.152,10.304-9.074,15.229h9.379L101.772,107.002z"/>
<path fill="#59656A" d="M102.695,103.774c0,0,3.073,11.841,0.307,17.07l12.609-1.382  C115.611,119.463,113.154,108.232,102.695,103.774z"/>
<path fill="#59656A" d="M90.698,124.073l28.604-2.921c0,0-3.384,4.155-4.922,4.922l-23.219,0.152L90.698,124.073z"/>
<path fill="#59656A" d="M195,101c7.732,0,14,6.268,14,14s-6.268,14-14,14s-14-6.268-14-14S187.268,101,195,101z M195,119l6,6l4-4  l-6-6l6-6l-4-4l-6,6l-6-6l-4,4l6,6l-6,6l4,4L195,119z"/>
<path fill="#59656A" d="M25,114v15h-7v-10h-6v10H5v-15H1l14-13l14,13H25z"/>
<path fill="#59656A" d="M171.327,121.061c0.074-0.349,0.194-0.688,0.227-1.05c0.766-0.086,1.551-0.227,2.322-0.429  c0.064-0.949,0.012-1.905-0.178-2.836c-0.783-0.105-1.582-0.153-2.353-0.142c-0.084-0.349-0.233-0.679-0.358-1.013  c-0.158-0.321-0.301-0.65-0.5-0.947c0.538-0.564,1.052-1.18,1.5-1.819c-0.538-0.787-1.222-1.457-1.952-2.062  c-0.676,0.429-1.309,0.9-1.893,1.397c-0.307-0.184-0.603-0.388-0.93-0.534c-0.321-0.159-0.647-0.305-0.989-0.41  c0.051-0.782,0.044-1.575-0.022-2.355c-0.913-0.256-1.873-0.329-2.82-0.326c-0.243,0.764-0.426,1.531-0.551,2.291  c-0.354,0.05-0.709,0.09-1.056,0.183c-0.347,0.083-0.689,0.186-1.023,0.324c-0.466-0.637-0.973-1.227-1.533-1.789  c-0.861,0.398-1.653,0.937-2.363,1.563c0.306,0.744,0.644,1.432,1.044,2.111c-0.238,0.261-0.484,0.52-0.688,0.817  c-0.225,0.281-0.396,0.594-0.581,0.902c-0.762-0.188-1.523-0.307-2.319-0.379c-0.398,0.858-0.667,1.774-0.803,2.713  c0.709,0.373,1.414,0.684,2.155,0.939c-0.011,0.359-0.041,0.717-0.003,1.074c0.008,0.358,0.075,0.709,0.133,1.066  c-0.705,0.346-1.362,0.743-2.023,1.197c0.257,0.912,0.63,1.798,1.136,2.599c0.773-0.171,1.519-0.388,2.259-0.667  c0.203,0.292,0.435,0.567,0.684,0.825c0.236,0.263,0.517,0.493,0.785,0.726c-0.306,0.708-0.57,1.451-0.783,2.225  c0.793,0.519,1.639,0.979,2.545,1.257c0.482-0.62,0.917-1.28,1.299-1.963c0.345,0.095,0.699,0.154,1.054,0.196  c0.354,0.054,0.716,0.042,1.071,0.054c0.219,0.734,0.496,1.475,0.83,2.2c0.942-0.114,1.884-0.3,2.76-0.667  c-0.028-0.784-0.125-1.579-0.27-2.344c0.33-0.141,0.629-0.34,0.935-0.523c0.287-0.211,0.589-0.408,0.848-0.652  c0.646,0.423,1.341,0.82,2.054,1.16c0.664-0.684,1.229-1.455,1.691-2.285c-0.535-0.591-1.119-1.135-1.716-1.625  C171.115,121.746,171.198,121.394,171.327,121.061z M163.019,124.347c-1.308-0.13-2.529-0.768-3.423-1.702  c-0.91-0.938-1.456-2.215-1.529-3.511c-0.094-1.291,0.302-2.63,1.082-3.668c0.767-1.042,1.918-1.821,3.188-2.113  c1.259-0.294,2.636-0.169,3.802,0.434c1.16,0.579,2.119,1.566,2.637,2.77c0.521,1.204,0.601,2.559,0.24,3.821  c-0.384,1.253-1.186,2.35-2.278,3.076C165.651,124.184,164.308,124.49,163.019,124.347z"/>
<path fill="#59656A" d="M175.531,106.231l-0.049-0.69c0.37-0.183,0.689-0.403,1.013-0.655c-0.138-0.599-0.407-1.16-0.743-1.668  c-0.409,0.08-0.8,0.188-1.17,0.327c-0.131-0.188-0.315-0.333-0.486-0.486c-0.168-0.161-0.359-0.286-0.566-0.397  c0.081-0.389,0.123-0.795,0.131-1.215c-0.566-0.237-1.16-0.405-1.771-0.445c-0.194,0.348-0.352,0.724-0.475,1.116  c-0.229,0.018-0.461,0.018-0.684,0.066l-0.667,0.192c-0.255-0.3-0.542-0.575-0.862-0.834c-0.553,0.258-1.043,0.645-1.453,1.094  c0.162,0.38,0.354,0.734,0.568,1.061c-0.147,0.181-0.245,0.392-0.364,0.59c-0.131,0.191-0.18,0.421-0.262,0.636  c-0.393,0.015-0.825,0.057-1.206,0.149c-0.122,0.6-0.139,1.213-0.05,1.823c0.375,0.111,0.806,0.177,1.197,0.214  c0.068,0.219,0.104,0.449,0.225,0.65c0.109,0.2,0.193,0.423,0.333,0.608c-0.232,0.313-0.445,0.658-0.628,1.027  c0.387,0.468,0.855,0.883,1.393,1.173c0.333-0.242,0.634-0.5,0.905-0.784l0.655,0.227c0.222,0.06,0.455,0.074,0.681,0.106  c0.101,0.394,0.236,0.777,0.415,1.136c0.611-0.006,1.211-0.142,1.791-0.343c0.017-0.421-0.005-0.831-0.061-1.225  c0.208-0.098,0.409-0.212,0.584-0.365c0.182-0.143,0.372-0.273,0.511-0.459c0.365,0.156,0.747,0.29,1.154,0.391  c0.361-0.491,0.663-1.034,0.832-1.625c-0.308-0.27-0.618-0.5-0.973-0.709L175.531,106.231z M171.173,107.437  c-0.386-0.105-0.729-0.397-0.896-0.766c-0.177-0.359-0.168-0.826,0.032-1.172c0.188-0.358,0.547-0.629,0.936-0.713  c0.407-0.1,0.834,0.038,1.14,0.301c0.311,0.266,0.497,0.654,0.494,1.071c-0.018,0.414-0.227,0.796-0.553,1.041  C172.007,107.445,171.574,107.556,171.173,107.437z"/>
<path fill="#59656A" d="M66.111,126.127c-0.303-0.299-1.039-0.362-1.371-0.695c-0.412-0.413-0.399-1.074-0.795-1.474  c-0.311-0.307-0.84-0.373-1.103-0.634c-0.303-0.304-0.33-0.798-0.519-0.986c-0.416,1.549-1.805,5.406-0.903,6.315  c0.911,0.908,4.076-0.141,6.101-1.12c-0.149-0.15-0.599-0.245-0.904-0.549C66.412,126.78,66.363,126.377,66.111,126.127z"/>
<path fill="#59656A" d="M64.122,118.734c0.454,0.455,1.2,0.455,1.659,0l16.557-16.556l-0.853-0.858  c-0.462-0.432-1.188-0.429-1.637,0.022l-15.726,15.731C63.662,117.529,63.662,118.275,64.122,118.734z"/>
<path fill="#59656A" d="M83.683,103.521l-16.215,16.214c-0.74,0.742-0.74,1.938-0.002,2.683l0.081,0.079  c0.741,0.735,1.937,0.735,2.681,0l16.214-16.217L83.683,103.521z"/>
<path fill="#59656A" d="M88.557,108.395l-0.853-0.853l-16.557,16.556c-0.458,0.463-0.458,1.204,0,1.665  c0.458,0.46,1.204,0.46,1.662,0l15.728-15.727C88.987,109.583,88.993,108.858,88.557,108.395z"/>
<line fill="none" stroke="#59656A" stroke-width="8" x1="45" y1="101" x2="45" y2="129"/>
<line fill="none" stroke="#59656A" stroke-width="8" x1="31" y1="115" x2="59" y2="115"/>
<path id="Trace_3_" fill="#59656A" d="M267.324,144.351l-10.365-0.313l-3.012,7.207c-0.223,0.586-0.817,0.917-1.406,0.834  c-0.682-0.048-1.222-0.617-1.222-1.312v-11.442l-7.225,18.818c-0.071,0.181-0.177,0.339-0.309,0.469  c-0.006,0.006-0.01,0.009-0.018,0.015c-0.017,0.021-0.037,0.038-0.059,0.056c-0.229,0.198-0.53,0.319-0.858,0.319  c-0.726,0-1.316-0.591-1.316-1.317v-11.937l-0.808,1.931c-0.223,0.587-0.818,0.92-1.417,0.835l-11.474-0.824  c-0.34,0-0.617-0.275-0.617-0.617c0-0.338,0.277-0.614,0.617-0.614l10.781-0.544l2.998-7.182c0.259-0.679,1.019-1.021,1.698-0.761  c0.437,0.165,0.732,0.541,0.821,0.966c0.02,0.1,0.033,0.198,0.033,0.301v11.371l7.206-18.765c0.232-0.61,0.874-0.945,1.497-0.816  c0.616,0.107,1.086,0.646,1.086,1.294v12.083l0.88-2.108c0.212-0.554,0.763-0.885,1.328-0.843l11.163-0.018  c0.806,0,1.46,0.653,1.46,1.456C268.759,143.697,268.13,144.351,267.324,144.351z"/>
<path id="Trace_2_" fill="#2381B3" d="M267.324,204.351l-10.365-0.313l-3.012,7.207c-0.223,0.586-0.817,0.917-1.406,0.834  c-0.682-0.048-1.222-0.617-1.222-1.312v-11.442l-7.225,18.818c-0.071,0.181-0.177,0.339-0.309,0.469  c-0.006,0.006-0.01,0.009-0.018,0.015c-0.017,0.021-0.037,0.038-0.059,0.056c-0.229,0.198-0.53,0.319-0.858,0.319  c-0.726,0-1.316-0.591-1.316-1.317v-11.937l-0.808,1.931c-0.223,0.587-0.818,0.92-1.417,0.835l-11.474-0.824  c-0.34,0-0.617-0.275-0.617-0.618c0-0.338,0.277-0.614,0.617-0.614l10.781-0.544l2.998-7.182c0.259-0.679,1.019-1.021,1.698-0.761  c0.437,0.165,0.732,0.541,0.821,0.966c0.02,0.1,0.033,0.198,0.033,0.301v11.371l7.206-18.765c0.232-0.61,0.874-0.945,1.497-0.816  c0.616,0.107,1.086,0.646,1.086,1.294v12.083l0.88-2.108c0.212-0.554,0.763-0.885,1.328-0.843l11.163-0.018  c0.806,0,1.46,0.653,1.46,1.456C268.759,203.697,268.13,204.351,267.324,204.351z"/>
<polygon fill="#59656A" points="125.752,61.404 119.568,61.404 124.53,70 119.568,78.596 125.752,78.596 130.715,70 "/>
<polygon fill="#59656A" points="111.285,61.404 117.47,61.404 122.432,70 117.47,78.596 111.285,78.596 116.248,70 "/>
<polygon fill="#59656A" points="27.61,61.404 21.427,61.404 26.389,70 21.427,78.596 27.61,78.596 32.573,70 "/>
<polygon fill="#59656A" points="86.248,78.596 92.432,78.596 87.47,70 92.432,61.404 86.248,61.404 81.285,70 "/>
<polygon fill="#59656A" points="100.715,78.596 94.53,78.596 89.568,70 94.53,61.404 100.715,61.404 95.752,70 "/>
<polygon fill="#59656A" points="6.39,78.596 12.573,78.596 7.611,70 12.573,61.404 6.39,61.404 1.427,70 "/>
<path fill="#59656A" d="M223.775,118.185h2.059c0.336,0,0.615,0.335,0.615,0.69c0,0.335-0.258,0.649-0.554,0.649h-2.496  c-1.546,0-2.457-1.464-2.735-2.956l-0.593-3.378c0-0.379,0.258-0.675,0.593-0.675c0.357,0,0.556,0.253,0.635,0.526l0.613,3.399  C222.111,117.511,222.725,118.185,223.775,118.185z"/>
<path fill="#59656A" d="M222.686,110.462c-0.813,0-1.565-0.756-1.565-1.701c0-0.903,0.653-1.636,1.503-1.636  c0.852,0,1.565,0.733,1.565,1.656C224.19,109.707,223.477,110.462,222.686,110.462z"/>
<path fill="#59656A" d="M222.824,110.69c0.673,0,1.168,0.481,1.286,1.155l0.676,3.672h2.435c0.891,0,1.386,0.356,1.386,1.259v4.806  c0,0.734-0.177,1.091-0.793,1.091c-0.495,0-0.771-0.356-0.771-1.091v-3.756h-3.21c-0.99,0-1.445-0.505-1.643-1.762l-0.693-3.59  c-0.021-0.209-0.04-0.354-0.04-0.438C221.458,111.281,222.09,110.69,222.824,110.69z"/>
<rect x="225.507" y="113.464" fill="#59656A" width="3.587" height="0.792"/>
<polygon fill="#59656A" points="230.075,109.829 229.496,109.674 228.437,114.127 229.016,114.282 "/>
<path fill="#59656A" d="M253.951,118.702c-0.309,0-0.618-0.118-0.854-0.354l-3.334-3.332c-0.473-0.473-0.473-1.238,0-1.712  c0.472-0.471,1.236-0.471,1.709,0l2.479,2.48l5.905-5.902c0.472-0.474,1.237-0.474,1.708,0c0.473,0.472,0.473,1.237,0,1.709  l-6.758,6.757C254.569,118.584,254.26,118.702,253.951,118.702z"/>
<path fill="#59656A" d="M260.422,121.919c-1.565,1.096-3.394,1.647-5.267,1.62c-0.247-0.003-0.493-0.015-0.735-0.036  c-0.1-0.01-0.199-0.026-0.299-0.039c-0.19-0.023-0.381-0.05-0.569-0.087c-0.114-0.022-0.226-0.05-0.339-0.077  c-0.183-0.043-0.364-0.085-0.542-0.14c-0.086-0.025-0.169-0.057-0.254-0.084c-0.206-0.069-0.41-0.141-0.609-0.225  c-0.045-0.019-0.089-0.039-0.134-0.059c-0.233-0.103-0.462-0.211-0.685-0.332c-0.01-0.005-0.02-0.011-0.03-0.017  c-0.753-0.412-1.442-0.928-2.045-1.53c-0.01-0.012-0.02-0.021-0.03-0.032c-0.187-0.188-0.366-0.387-0.536-0.592  c-0.037-0.042-0.07-0.09-0.106-0.134c-1.23-1.539-1.972-3.485-1.972-5.604h2.367l-3.788-5.68l-3.786,5.68h2.367  c0,2.491,0.776,4.799,2.095,6.706c0.016,0.028,0.028,0.056,0.046,0.081c0.137,0.197,0.288,0.376,0.434,0.561  c0.055,0.07,0.105,0.144,0.163,0.212c0.217,0.261,0.446,0.508,0.681,0.748c0.021,0.022,0.044,0.046,0.067,0.068  c0.791,0.794,1.684,1.461,2.658,1.993c0.026,0.016,0.052,0.031,0.079,0.044c0.281,0.151,0.568,0.29,0.862,0.417  c0.072,0.031,0.143,0.066,0.216,0.098c0.251,0.104,0.507,0.194,0.765,0.279c0.122,0.042,0.244,0.085,0.368,0.122  c0.225,0.068,0.457,0.123,0.689,0.18c0.154,0.034,0.308,0.073,0.465,0.104c0.065,0.014,0.127,0.032,0.192,0.042  c0.22,0.04,0.44,0.062,0.659,0.088c0.08,0.01,0.157,0.024,0.238,0.032c0.394,0.038,0.788,0.064,1.18,0.064  c2.406,0,4.753-0.736,6.766-2.146c0.642-0.45,0.799-1.336,0.347-1.977C261.95,121.624,261.062,121.469,260.422,121.919z"/>
<path fill="#59656A" d="M267.097,114.552c-0.001-2.48-0.772-4.785-2.085-6.689c-0.019-0.031-0.032-0.064-0.054-0.096  c-0.163-0.231-0.34-0.449-0.518-0.668c-0.02-0.025-0.039-0.053-0.061-0.079c-1.2-1.456-2.708-2.583-4.417-3.318  c-0.048-0.021-0.095-0.043-0.141-0.063c-0.273-0.112-0.553-0.212-0.833-0.305c-0.103-0.035-0.202-0.07-0.304-0.103  c-0.246-0.073-0.494-0.133-0.745-0.191c-0.139-0.031-0.275-0.066-0.417-0.094c-0.068-0.013-0.135-0.034-0.203-0.047  c-0.187-0.032-0.374-0.047-0.562-0.07c-0.129-0.017-0.257-0.037-0.386-0.05c-0.315-0.03-0.627-0.043-0.94-0.048  c-0.057,0-0.112-0.008-0.168-0.008c-0.011,0-0.021,0.002-0.03,0.004c-2.403,0.001-4.746,0.727-6.756,2.136  c-0.642,0.449-0.798,1.335-0.348,1.978c0.449,0.643,1.334,0.798,1.977,0.349c1.553-1.088,3.366-1.64,5.224-1.622  c0.266,0.002,0.529,0.016,0.789,0.04c0.08,0.008,0.159,0.02,0.239,0.03c0.214,0.025,0.427,0.056,0.634,0.097  c0.092,0.019,0.183,0.042,0.273,0.062c0.205,0.047,0.411,0.097,0.61,0.157c0.062,0.019,0.125,0.042,0.188,0.062  c0.229,0.075,0.456,0.155,0.675,0.248c0.022,0.01,0.044,0.021,0.066,0.03c1.324,0.569,2.486,1.445,3.391,2.542  c0.006,0.006,0.011,0.015,0.017,0.021c1.273,1.553,2.041,3.536,2.043,5.695h-2.369l3.789,5.681l3.785-5.681H267.097z"/>
<path fill="#59656A" d="M239,115c0,7.732-6.268,14-14,14s-14-6.268-14-14s6.268-14,14-14S239,107.268,239,115z M225,105  c-5.523,0-10,4.477-10,10s4.477,10,10,10s10-4.477,10-10S230.523,105,225,105z M213,113.25c-0.966,0-1.75,0.784-1.75,1.75  s0.784,1.75,1.75,1.75s1.75-0.784,1.75-1.75S213.966,113.25,213,113.25z M223.306,127.056c0,0.966,0.784,1.75,1.75,1.75  s1.75-0.784,1.75-1.75s-0.784-1.75-1.75-1.75S223.306,126.09,223.306,127.056z M237.111,116.75c0.966,0,1.75-0.784,1.75-1.75  s-0.784-1.75-1.75-1.75s-1.75,0.784-1.75,1.75S236.146,116.75,237.111,116.75z M226.806,102.944c0-0.966-0.784-1.75-1.75-1.75  s-1.75,0.784-1.75,1.75s0.784,1.75,1.75,1.75S226.806,103.91,226.806,102.944z"/>
<path fill="#59656A" d="M130.812,112.757v11.087v1.135c0,2.21,1.808,4.021,4.021,4.021h0.335c2.211,0,4.02-1.811,4.02-4.021v-1.135  v-1.647h-5.242c-0.278,0-0.503-0.225-0.503-0.501c0-0.277,0.225-0.501,0.503-0.501h5.242v-1.489h-3.805  c-0.279,0-0.502-0.225-0.502-0.502c0-0.277,0.224-0.503,0.502-0.503h3.806v-1.487h-5.242c-0.278,0-0.502-0.226-0.502-0.504  c0-0.278,0.224-0.502,0.502-0.502h5.242v-1.487h-3.806c-0.279,0-0.502-0.225-0.502-0.5c0-0.279,0.224-0.503,0.502-0.503h3.806  v-0.958v-1.538h-8.376V112.757z"/>
<path fill="#59656A" d="M139.692,108.082h-0.431h-8.522h-0.43c-0.367,0-0.67,0.3-0.67,0.67v0.457c0,0.309,0.218,0.561,0.503,0.637  c0.055,0.014,0.108,0.034,0.167,0.034h0.504h8.376h0.503c0.059,0,0.112-0.02,0.167-0.034c0.286-0.078,0.503-0.328,0.503-0.637  v-0.457C140.362,108.382,140.061,108.082,139.692,108.082z"/>
<path fill="#59656A" d="M136.826,106.481c0.972-0.037,1.73-0.853,1.693-1.825c-0.037-0.971-0.854-1.727-1.825-1.69  c-0.971,0.036-1.729,0.852-1.692,1.823C135.038,105.76,135.856,106.518,136.826,106.481z"/>
<circle fill="#59656A" cx="133.335" cy="102.18" r="1.18"/>
<path fill="#59656A" d="M132.273,106.428c0.425,0,0.771-0.346,0.771-0.773c0-0.426-0.346-0.773-0.771-0.773  c-0.426,0-0.773,0.348-0.773,0.773C131.5,106.082,131.847,106.428,132.273,106.428z"/>
<path fill="#2381B3" d="M101.772,167.002c0,0-4.152,10.304-9.074,15.229h9.379L101.772,167.002z"/>
<path fill="#2381B3" d="M102.695,163.774c0,0,3.073,11.841,0.307,17.07l12.609-1.382  C115.611,179.463,113.154,168.232,102.695,163.774z"/>
<path fill="#2381B3" d="M90.698,184.073l28.604-2.921c0,0-3.384,4.155-4.922,4.922l-23.219,0.152L90.698,184.073z"/>
<path fill="#2381B3" d="M195,161c7.732,0,14,6.268,14,14s-6.268,14-14,14s-14-6.268-14-14S187.268,161,195,161z M195,179l6,6l4-4  l-6-6l6-6l-4-4l-6,6l-6-6l-4,4l6,6l-6,6l4,4L195,179z"/>
<path fill="#2381B3" d="M25,174v15h-7v-10h-6v10H5v-15H1l14-13l14,13H25z"/>
<path fill="#2381B3" d="M171.327,181.061c0.074-0.349,0.194-0.688,0.227-1.05c0.766-0.086,1.551-0.227,2.322-0.429  c0.064-0.949,0.012-1.905-0.178-2.836c-0.783-0.105-1.582-0.153-2.353-0.142c-0.084-0.349-0.233-0.679-0.358-1.013  c-0.158-0.321-0.301-0.65-0.5-0.947c0.538-0.564,1.052-1.18,1.5-1.819c-0.538-0.787-1.222-1.457-1.952-2.062  c-0.676,0.429-1.309,0.9-1.893,1.397c-0.307-0.184-0.603-0.388-0.93-0.534c-0.321-0.159-0.647-0.305-0.989-0.41  c0.051-0.782,0.044-1.575-0.022-2.355c-0.913-0.256-1.873-0.329-2.82-0.326c-0.243,0.764-0.426,1.531-0.551,2.291  c-0.354,0.05-0.709,0.09-1.056,0.183c-0.347,0.083-0.689,0.186-1.023,0.324c-0.466-0.637-0.973-1.227-1.533-1.789  c-0.861,0.398-1.653,0.937-2.363,1.563c0.306,0.744,0.644,1.432,1.044,2.111c-0.238,0.261-0.484,0.52-0.688,0.817  c-0.225,0.281-0.396,0.594-0.581,0.902c-0.762-0.188-1.523-0.307-2.319-0.379c-0.398,0.858-0.667,1.774-0.803,2.713  c0.709,0.373,1.414,0.684,2.155,0.939c-0.011,0.359-0.041,0.717-0.003,1.074c0.008,0.358,0.075,0.709,0.133,1.066  c-0.705,0.346-1.362,0.743-2.023,1.197c0.257,0.912,0.63,1.798,1.136,2.599c0.773-0.171,1.519-0.388,2.259-0.667  c0.203,0.292,0.435,0.567,0.684,0.825c0.236,0.263,0.517,0.493,0.785,0.726c-0.306,0.708-0.57,1.451-0.783,2.225  c0.793,0.519,1.639,0.979,2.545,1.257c0.482-0.62,0.917-1.28,1.299-1.963c0.345,0.095,0.699,0.154,1.054,0.196  c0.354,0.054,0.716,0.042,1.071,0.054c0.219,0.734,0.496,1.475,0.83,2.2c0.942-0.114,1.884-0.3,2.76-0.667  c-0.028-0.784-0.125-1.579-0.27-2.344c0.33-0.141,0.629-0.34,0.935-0.523c0.287-0.211,0.589-0.408,0.848-0.652  c0.646,0.423,1.341,0.82,2.054,1.16c0.664-0.684,1.229-1.455,1.691-2.285c-0.535-0.591-1.119-1.135-1.716-1.625  C171.115,181.746,171.198,181.394,171.327,181.061z M163.019,184.347c-1.308-0.13-2.529-0.768-3.423-1.702  c-0.91-0.938-1.456-2.215-1.529-3.511c-0.094-1.291,0.302-2.63,1.082-3.668c0.767-1.042,1.918-1.821,3.188-2.113  c1.259-0.294,2.636-0.169,3.802,0.434c1.16,0.579,2.119,1.566,2.637,2.77c0.521,1.204,0.601,2.559,0.24,3.821  c-0.384,1.253-1.186,2.35-2.278,3.076C165.651,184.184,164.308,184.49,163.019,184.347z"/>
<path fill="#2381B3" d="M175.531,166.231l-0.049-0.69c0.37-0.183,0.689-0.403,1.013-0.655c-0.138-0.599-0.407-1.16-0.743-1.668  c-0.409,0.08-0.8,0.188-1.17,0.327c-0.131-0.188-0.315-0.333-0.486-0.486c-0.168-0.161-0.359-0.286-0.566-0.397  c0.081-0.389,0.123-0.795,0.131-1.215c-0.566-0.237-1.16-0.405-1.771-0.445c-0.194,0.348-0.352,0.724-0.475,1.116  c-0.229,0.018-0.461,0.018-0.684,0.066l-0.667,0.192c-0.255-0.3-0.542-0.575-0.862-0.834c-0.553,0.258-1.043,0.645-1.453,1.094  c0.162,0.38,0.354,0.734,0.568,1.061c-0.147,0.181-0.245,0.392-0.364,0.59c-0.131,0.191-0.18,0.421-0.262,0.636  c-0.393,0.015-0.825,0.057-1.206,0.149c-0.122,0.6-0.139,1.213-0.05,1.823c0.375,0.111,0.806,0.177,1.197,0.214  c0.068,0.219,0.104,0.449,0.225,0.65c0.109,0.2,0.193,0.423,0.333,0.608c-0.232,0.313-0.445,0.658-0.628,1.027  c0.387,0.468,0.855,0.883,1.393,1.173c0.333-0.242,0.634-0.5,0.905-0.784l0.655,0.227c0.222,0.06,0.455,0.074,0.681,0.106  c0.101,0.394,0.236,0.777,0.415,1.136c0.611-0.006,1.211-0.142,1.791-0.343c0.017-0.421-0.005-0.831-0.061-1.225  c0.208-0.098,0.409-0.212,0.584-0.365c0.182-0.143,0.372-0.273,0.511-0.459c0.365,0.156,0.747,0.29,1.154,0.391  c0.361-0.491,0.663-1.034,0.832-1.625c-0.308-0.27-0.618-0.5-0.973-0.709L175.531,166.231z M171.173,167.437  c-0.386-0.105-0.729-0.397-0.896-0.766c-0.177-0.359-0.168-0.826,0.032-1.172c0.188-0.358,0.547-0.629,0.936-0.713  c0.407-0.1,0.834,0.038,1.14,0.301c0.311,0.266,0.497,0.654,0.494,1.071c-0.018,0.414-0.227,0.796-0.553,1.041  C172.007,167.445,171.574,167.556,171.173,167.437z"/>
<path fill="#2381B3" d="M66.111,186.127c-0.303-0.299-1.039-0.362-1.371-0.695c-0.412-0.413-0.399-1.074-0.795-1.474  c-0.311-0.307-0.84-0.373-1.103-0.634c-0.303-0.304-0.33-0.798-0.519-0.986c-0.416,1.549-1.805,5.406-0.903,6.315  c0.911,0.908,4.076-0.141,6.101-1.12c-0.149-0.15-0.599-0.245-0.904-0.549C66.412,186.78,66.363,186.377,66.111,186.127z"/>
<path fill="#2381B3" d="M64.122,178.734c0.454,0.455,1.2,0.455,1.659,0l16.557-16.556l-0.853-0.858  c-0.462-0.432-1.188-0.429-1.637,0.022l-15.726,15.731C63.662,177.529,63.662,178.275,64.122,178.734z"/>
<path fill="#2381B3" d="M83.683,163.521l-16.215,16.214c-0.74,0.742-0.74,1.938-0.002,2.683l0.081,0.079  c0.741,0.735,1.937,0.735,2.681,0l16.214-16.217L83.683,163.521z"/>
<path fill="#2381B3" d="M88.557,168.395l-0.853-0.853l-16.557,16.556c-0.458,0.463-0.458,1.204,0,1.665  c0.458,0.46,1.204,0.46,1.662,0l15.728-15.727C88.987,169.583,88.993,168.858,88.557,168.395z"/>
<line fill="none" stroke="#2381B3" stroke-width="8" x1="45" y1="161" x2="45" y2="189"/>
<line fill="none" stroke="#2381B3" stroke-width="8" x1="31" y1="175" x2="59" y2="175"/>
<polygon fill="#2381B3" points="185.752,61.404 179.568,61.404 184.53,70 179.568,78.596 185.752,78.596 190.715,70 "/>
<polygon fill="#2381B3" points="171.285,61.404 177.47,61.404 182.432,70 177.47,78.596 171.285,78.596 176.248,70 "/>
<polygon fill="#2381B3" points="67.61,61.404 61.427,61.404 66.389,70 61.427,78.596 67.61,78.596 72.573,70 "/>
<polygon fill="#2381B3" points="146.248,78.596 152.432,78.596 147.47,70 152.432,61.404 146.248,61.404 141.285,70 "/>
<polygon fill="#2381B3" points="160.715,78.596 154.53,78.596 149.568,70 154.53,61.404 160.715,61.404 155.752,70 "/>
<polygon fill="#2381B3" points="46.39,78.596 52.573,78.596 47.611,70 52.573,61.404 46.39,61.404 41.427,70 "/>
<path fill="#2381B3" d="M223.775,178.185h2.059c0.336,0,0.615,0.335,0.615,0.69c0,0.335-0.258,0.649-0.554,0.649h-2.496  c-1.546,0-2.457-1.464-2.735-2.956l-0.593-3.378c0-0.379,0.258-0.675,0.593-0.675c0.357,0,0.556,0.253,0.635,0.526l0.613,3.399  C222.111,177.511,222.725,178.185,223.775,178.185z"/>
<path fill="#2381B3" d="M222.686,170.462c-0.813,0-1.565-0.756-1.565-1.701c0-0.903,0.653-1.636,1.503-1.636  c0.852,0,1.565,0.733,1.565,1.656C224.19,169.707,223.477,170.462,222.686,170.462z"/>
<path fill="#2381B3" d="M222.824,170.69c0.673,0,1.168,0.481,1.286,1.155l0.676,3.672h2.435c0.891,0,1.386,0.356,1.386,1.259v4.806  c0,0.734-0.177,1.091-0.793,1.091c-0.495,0-0.771-0.356-0.771-1.091v-3.756h-3.21c-0.99,0-1.445-0.505-1.643-1.762l-0.693-3.59  c-0.021-0.209-0.04-0.354-0.04-0.438C221.458,171.281,222.09,170.69,222.824,170.69z"/>
<rect x="225.507" y="173.464" fill="#2381B3" width="3.587" height="0.792"/>
<polygon fill="#2381B3" points="230.075,169.829 229.496,169.674 228.437,174.127 229.016,174.282 "/>
<path fill="#2381B3" d="M253.951,178.702c-0.309,0-0.618-0.118-0.854-0.354l-3.334-3.332c-0.473-0.473-0.473-1.238,0-1.712  c0.472-0.471,1.236-0.471,1.709,0l2.479,2.48l5.905-5.902c0.472-0.474,1.237-0.474,1.708,0c0.473,0.472,0.473,1.237,0,1.709  l-6.758,6.757C254.569,178.584,254.26,178.702,253.951,178.702z"/>
<path fill="#2381B3" d="M260.422,181.919c-1.565,1.096-3.394,1.647-5.267,1.62c-0.247-0.003-0.493-0.015-0.735-0.036  c-0.1-0.01-0.199-0.026-0.299-0.039c-0.19-0.023-0.381-0.05-0.569-0.087c-0.114-0.022-0.226-0.05-0.339-0.077  c-0.183-0.043-0.364-0.085-0.542-0.14c-0.086-0.025-0.169-0.057-0.254-0.084c-0.206-0.069-0.41-0.141-0.609-0.225  c-0.045-0.019-0.089-0.039-0.134-0.059c-0.233-0.103-0.462-0.211-0.685-0.332c-0.01-0.005-0.02-0.011-0.03-0.017  c-0.753-0.412-1.442-0.928-2.045-1.53c-0.01-0.012-0.02-0.021-0.03-0.032c-0.187-0.188-0.366-0.387-0.536-0.592  c-0.037-0.042-0.07-0.09-0.106-0.134c-1.23-1.539-1.972-3.485-1.972-5.604h2.367l-3.788-5.68l-3.786,5.68h2.367  c0,2.491,0.776,4.799,2.095,6.706c0.016,0.028,0.028,0.056,0.046,0.081c0.137,0.197,0.288,0.376,0.434,0.561  c0.055,0.07,0.105,0.144,0.163,0.212c0.217,0.261,0.446,0.508,0.681,0.748c0.021,0.022,0.044,0.046,0.067,0.068  c0.791,0.794,1.684,1.461,2.658,1.993c0.026,0.016,0.052,0.031,0.079,0.044c0.281,0.151,0.568,0.29,0.862,0.417  c0.072,0.031,0.143,0.066,0.216,0.098c0.251,0.104,0.507,0.194,0.765,0.279c0.122,0.042,0.244,0.085,0.368,0.122  c0.225,0.068,0.457,0.123,0.689,0.18c0.154,0.034,0.308,0.073,0.465,0.104c0.065,0.014,0.127,0.032,0.192,0.042  c0.22,0.04,0.44,0.062,0.659,0.088c0.08,0.01,0.157,0.024,0.238,0.032c0.394,0.038,0.788,0.064,1.18,0.064  c2.406,0,4.753-0.736,6.766-2.146c0.642-0.45,0.799-1.336,0.347-1.977C261.95,181.624,261.062,181.469,260.422,181.919z"/>
<path fill="#2381B3" d="M267.097,174.552c-0.001-2.48-0.772-4.785-2.085-6.689c-0.019-0.031-0.032-0.064-0.054-0.096  c-0.163-0.231-0.34-0.449-0.518-0.668c-0.02-0.025-0.039-0.053-0.061-0.079c-1.2-1.456-2.708-2.583-4.417-3.318  c-0.048-0.021-0.095-0.043-0.141-0.063c-0.273-0.112-0.553-0.212-0.833-0.305c-0.103-0.035-0.202-0.07-0.304-0.103  c-0.246-0.073-0.494-0.133-0.745-0.191c-0.139-0.031-0.275-0.066-0.417-0.094c-0.068-0.013-0.135-0.034-0.203-0.047  c-0.187-0.032-0.374-0.047-0.562-0.07c-0.129-0.017-0.257-0.037-0.386-0.05c-0.315-0.03-0.627-0.043-0.94-0.048  c-0.057,0-0.112-0.008-0.168-0.008c-0.011,0-0.021,0.002-0.03,0.004c-2.403,0.001-4.746,0.727-6.756,2.136  c-0.642,0.449-0.798,1.335-0.348,1.978c0.449,0.643,1.334,0.798,1.977,0.349c1.553-1.088,3.366-1.64,5.224-1.622  c0.266,0.002,0.529,0.016,0.789,0.04c0.08,0.008,0.159,0.02,0.239,0.03c0.214,0.025,0.427,0.056,0.634,0.097  c0.092,0.019,0.183,0.042,0.273,0.062c0.205,0.047,0.411,0.097,0.61,0.157c0.062,0.019,0.125,0.042,0.188,0.062  c0.229,0.075,0.456,0.155,0.675,0.248c0.022,0.01,0.044,0.021,0.066,0.03c1.324,0.569,2.486,1.445,3.391,2.542  c0.006,0.006,0.011,0.015,0.017,0.021c1.273,1.553,2.041,3.536,2.043,5.695h-2.369l3.789,5.681l3.785-5.681H267.097z"/>
<path fill="#2381B3" d="M239,175c0,7.732-6.268,14-14,14s-14-6.268-14-14s6.268-14,14-14S239,167.268,239,175z M225,165  c-5.523,0-10,4.477-10,10s4.477,10,10,10s10-4.477,10-10S230.523,165,225,165z M213,173.25c-0.966,0-1.75,0.784-1.75,1.75  s0.784,1.75,1.75,1.75s1.75-0.784,1.75-1.75S213.966,173.25,213,173.25z M223.306,187.056c0,0.966,0.784,1.75,1.75,1.75  s1.75-0.784,1.75-1.75s-0.784-1.75-1.75-1.75S223.306,186.09,223.306,187.056z M237.111,176.75c0.966,0,1.75-0.784,1.75-1.75  s-0.784-1.75-1.75-1.75s-1.75,0.784-1.75,1.75S236.146,176.75,237.111,176.75z M226.806,162.944c0-0.966-0.784-1.75-1.75-1.75  s-1.75,0.784-1.75,1.75s0.784,1.75,1.75,1.75S226.806,163.91,226.806,162.944z"/>
<path fill="#2381B3" d="M130.812,172.757v11.087v1.135c0,2.21,1.808,4.021,4.021,4.021h0.335c2.211,0,4.02-1.811,4.02-4.021v-1.135  v-1.647h-5.242c-0.278,0-0.503-0.225-0.503-0.501c0-0.277,0.225-0.501,0.503-0.501h5.242v-1.489h-3.805  c-0.279,0-0.502-0.225-0.502-0.502c0-0.277,0.224-0.503,0.502-0.503h3.806v-1.487h-5.242c-0.278,0-0.502-0.226-0.502-0.504  c0-0.278,0.224-0.502,0.502-0.502h5.242v-1.487h-3.806c-0.279,0-0.502-0.225-0.502-0.5c0-0.279,0.224-0.503,0.502-0.503h3.806  v-0.958v-1.538h-8.376V172.757z"/>
<path fill="#2381B3" d="M139.692,168.082h-0.431h-8.522h-0.43c-0.367,0-0.67,0.3-0.67,0.67v0.457c0,0.309,0.218,0.561,0.503,0.637  c0.055,0.014,0.108,0.034,0.167,0.034h0.504h8.376h0.503c0.059,0,0.112-0.02,0.167-0.034c0.286-0.078,0.503-0.328,0.503-0.637  v-0.457C140.362,168.382,140.061,168.082,139.692,168.082z"/>
<path fill="#2381B3" d="M136.826,166.481c0.972-0.037,1.73-0.853,1.693-1.825c-0.037-0.971-0.854-1.727-1.825-1.69  c-0.971,0.036-1.729,0.852-1.692,1.823C135.038,165.76,135.856,166.518,136.826,166.481z"/>
<circle fill="#2381B3" cx="133.335" cy="162.18" r="1.18"/>
<path fill="#2381B3" d="M132.273,166.428c0.425,0,0.771-0.346,0.771-0.773c0-0.426-0.346-0.773-0.771-0.773  c-0.426,0-0.773,0.348-0.773,0.773C131.5,166.082,131.847,166.428,132.273,166.428z"/>
<g id="Apigee_Arrow_2_">
	<polygon fill="#FF4300" points="88,0 80,8 72,0  "/>
	<polygon opacity="0.06" points="88,0 80,8 72,0  "/>
</g>
<rect x="171" y="24" fill="#1B97D1" width="10" height="4"/>
<rect x="174" y="21" fill="#1B97D1" width="4" height="10"/>
<circle fill="#FFFFFF" stroke="#D6DCDF" stroke-miterlimit="10" cx="139" cy="9" r="8.5"/>
<polygon fill="#1B97D1" points="134,7 144,7 139,13 "/>
<circle fill="#FFFFFF" stroke="#D6DCDF" stroke-miterlimit="10" cx="159" cy="9" r="8.5"/>
<polygon fill="#1B97D1" points="157,14 157,4 163,9 "/>
<use xlink:href="#Penicl_Icon_Small" width="14" height="14" y="-14" transform="matrix(1 0 0 -1 190 0)" overflow="visible"/>
<g>
	<path fill="#E02E01" d="M77.503,54.5c-3.862,0-7.003-3.141-7.003-7c0-3.859,3.142-7,7.003-7c3.858,0,6.997,3.14,6.997,7   C84.5,51.359,81.361,54.5,77.503,54.5z"/>
	<path fill="#C1272D" d="M77.503,41C81.089,41,84,43.911,84,47.5c0,3.589-2.911,6.5-6.497,6.5C73.911,54,71,51.089,71,47.5   C71,43.911,73.911,41,77.503,41 M77.503,40C73.366,40,70,43.364,70,47.5c0,4.136,3.366,7.5,7.503,7.5C81.637,55,85,51.635,85,47.5   C85,43.364,81.637,40,77.503,40L77.503,40z"/>
</g>
<path fill="#FFFFFF" d="M78.25,49h-1.5L76,45.5V43h3v2.5L78.25,49z M76,52.25v-2.5h3v2.5H76z"/>
<g>
	<path fill="#F2D230" d="M97.503,54.5c-3.862,0-7.003-3.141-7.003-7c0-3.859,3.142-7,7.003-7c3.858,0,6.997,3.14,6.997,7   C104.5,51.359,101.361,54.5,97.503,54.5z"/>
	<path fill="#E6B245" d="M97.503,41c3.586,0,6.497,2.911,6.497,6.5c0,3.589-2.911,6.5-6.497,6.5C93.911,54,91,51.089,91,47.5   C91,43.911,93.911,41,97.503,41 M97.503,40C93.366,40,90,43.364,90,47.5c0,4.136,3.366,7.5,7.503,7.5   c4.134,0,7.497-3.365,7.497-7.5C105,43.364,101.637,40,97.503,40L97.503,40z"/>
</g>
<path fill="#FFFFFF" d="M98.25,49h-1.5L96,45.5V43h3v2.5L98.25,49z M96,52.25v-2.5h3v2.5H96z"/>
<rect id="_x3C_Slice_x3E__2_" fill="none" width="270" height="220"/>
</svg>